<?xml version="1.0" encoding="utf-8"?>
<!-- Generator: Adobe Illustrator 16.0.0, SVG Export Plug-In . SVG Version: 6.00 Build 0)  -->
<!DOCTYPE svg PUBLIC "-//W3C//DTD SVG 1.1//EN" "http://www.w3.org/Graphics/SVG/1.1/DTD/svg11.dtd">
<svg version="1.1" id="Layer_1" xmlns="http://www.w3.org/2000/svg" xmlns:xlink="http://www.w3.org/1999/xlink" x="0px" y="0px"
	 width="258.107px" height="110px" viewBox="0 0 258.107 110" style="enable-background:new 0 0 258.107 110;" xml:space="preserve"
	>
<style type="text/css">
<![CDATA[
	.font{fill:#FFF;-webkit-animation: opacity 3.5s forwards;-moz-animation: opacity 3.5s forwards;animation: opacity 3.5s forwards;}
	.line1{fill:none;stroke:#F00;stroke-width:6;stroke-miterlimit:10;stroke-linecap:round;}
	.line2{fill:none;stroke:#F00;stroke-width:6;stroke-miterlimit:10;stroke-linecap:round;}
	.line3{fill:none;stroke:#F00;stroke-width:6;stroke-miterlimit:10;stroke-linecap:round;}
	.line4{fill:none;stroke:#F00;stroke-width:6;stroke-miterlimit:10;stroke-linecap:round;}
	.box{fill:#FFF;stroke:#F00;stroke-width:6;stroke-linecap:round;stroke-linejoin:round;stroke-miterlimit:10;}
	.box {
			stroke-dasharray: 450;
			stroke-dashoffset: 0;
			-webkit-animation: dash 3.5s infinite;
			-moz-animation: dash 3.5s infinite;
			animation: dash 3.5s infinite;
		}
	.line1 {
			stroke-dasharray: 55;
			stroke-dashoffset: 0;
			-webkit-animation: line 3.5s infinite;
			-moz-animation: line 3.5s infinite;
			animation: line 3.5s infinite;
		}
	.line2 {
			stroke-dasharray: 55;
			stroke-dashoffset: 0;
			-webkit-animation: line 3.5s infinite;
			-moz-animation: line 3.5s infinite;
			animation: line 3.5s infinite;
		}
	.line3 {
			stroke-dasharray: 150;
			stroke-dashoffset: 0;
			-webkit-animation: line2 3.5s infinite;
			-moz-animation: line2 3.5s infinite;
			animation: line2 3.5s infinite;
		}
	@-webkit-keyframes dash {
			from{
				stroke-dashoffset: 450;
				fill-opacity : 0;
			}
			to {
				stroke-dashoffset: 0;
				fill-opacity : 1;
			}
			
		}
	@-moz-keyframes dash {
			from{
				stroke-dashoffset: 450;
				fill-opacity : 0;
			}
			to {
				stroke-dashoffset: 0;
				fill-opacity : 1;
			}
			
		}
	@-webkit-keyframes line {
			from{
				stroke-dashoffset: 55;
				fill-opacity : 0;
			}
			to {
				stroke-dashoffset: 0;
				fill-opacity : 1;				
			}
		}
	@-moz-keyframes line {
			from{
				stroke-dashoffset: 55;
				fill-opacity : 0;
			}
			to {
				stroke-dashoffset: 0;
				fill-opacity : 1;				
			}
		}
	@-webkit-keyframes line2 {
			from{
				stroke-dashoffset: 150;
				fill-opacity : 0;
			}
			to {
				stroke-dashoffset: 0;
				fill-opacity : 1;				
			}
		}
	@-moz-keyframes line2 {
			from{
				stroke-dashoffset: 150;
				fill-opacity : 0;
			}
			to {
				stroke-dashoffset: 0;
				fill-opacity : 1;				
			}
		}
	@-webkit-keyframes opacity {
		from{
			opacity : 0;
		}
		to {
			opacity : 1;				
		}
	}
	@-moz-keyframes opacity {
		from{
			opacity : 0;
		}
		to {
			opacity : 1;				
		}
	}
	
]]>
</style>
<g>
	<path id="bounce" class="font" d="M125.22,29.72v48.532h-11.017V29.72H125.22z">
	<animateTransform id="bounce"
		 attributeName="transform"
		 attributeType="XML"
		 type="translate"
		 begin=".1"
		 dur="1.5s"
		 values="0,0;0,30;0,0;0,-30;0,0"
		 repeatCount="none"/>
	</path>
	<path id="bounce" class="font" d="M175.765,59.675c-0.216-5.833-0.432-12.89-0.432-19.946h-0.216c-1.512,6.193-3.528,13.105-5.4,18.794
		l-5.905,18.938h-8.568l-5.185-18.794c-1.584-5.688-3.24-12.601-4.393-18.938h-0.144c-0.288,6.553-0.504,14.042-0.864,20.09
		l-0.864,18.434h-10.153l3.096-48.532h14.617l4.752,16.202c1.512,5.616,3.024,11.665,4.104,17.353h0.216
		c1.368-5.616,3.024-12.025,4.608-17.425l5.185-16.129h14.329l2.664,48.532h-10.729L175.765,59.675z">
	<animateTransform id="bounce"
		 attributeName="transform"
		 attributeType="XML"
		 type="translate"
		 begin=".25"
		 dur="1.5s"
		 values="0,0;0,30;0,0;0,-30;0,0"
		 repeatCount="none"/>
	</path>
	<path id="bounce" class="font" d="M236.677,59.675c-0.216-5.833-0.432-12.89-0.432-19.946h-0.217c-1.512,6.193-3.528,13.105-5.4,18.794
		l-5.904,18.938h-8.568l-5.185-18.794c-1.584-5.688-3.24-12.601-4.393-18.938h-0.144c-0.288,6.553-0.505,14.042-0.864,20.09
		l-0.864,18.434h-10.153l3.097-48.532h14.617l4.753,16.202c1.512,5.616,3.023,11.665,4.104,17.353h0.217
		c1.368-5.616,3.023-12.025,4.608-17.425l5.185-16.129h14.329l2.664,48.532h-10.729L236.677,59.675z">
	<animateTransform id="bounce"
		 attributeName="transform"
		 attributeType="XML"
		 type="translate"
		 begin=".5"
		 dur="1.5s"
		 values="0,0;0,30;0,0;0,-30;0,0"
		 repeatCount="none"/>
	</path>
	<path class="box" d="M52.029,54.833v51.003L5,79.372V30.163L52.029,4.164l47.028,25.999v49.209l-47.028,26.464l-1.589-0.894"/>
	<path class="line1" d="M52.029,54.833l45.648-24.106"/>
	<path class="line2" d="M52.029,54.833L6.379,30.727"/>
	<path class="line3" d="M52.029,54.833l-0.001,40.091L66.45,75.259l9.667,5.667l21.562-50.199"/>
</g>
</svg>
